Coordinates
version=1
nRows=27
nColumns=12
inDegrees=yes

Units are S.I. units (second, meters, Newtons, ...)
Angles are in degrees

endheader
time	SC_y	SC_z	SC_x	AC_y	AC_z	AC_x	GH_y	GH_z	GH_yy	EL_x	PS_y
       0.0              -38.17          20.19          71.99          47.15          9.709         -1.593          91.15          25.12         -176.9          77.49          124.5
   0.01206              -38.17          20.19          71.99          47.15          9.707         -1.591          91.11          25.13         -176.8          77.48          124.5
   0.02413              -38.18          20.19          71.98          47.15          9.705          -1.59          91.07          25.14         -176.8          77.48          124.5
   0.03619              -38.18          20.19          71.97          47.15          9.703         -1.588          91.03          25.15         -176.7          77.47          124.5
   0.04825              -38.18          20.19          71.96          47.15          9.701         -1.587          90.98          25.15         -176.7          77.46          124.5
   0.06032              -38.18          20.19          71.96          47.16          9.699         -1.585          90.93          25.16         -176.6          77.45          124.4
   0.07238              -38.18          20.19          71.95          47.16          9.697         -1.583          90.88          25.17         -176.6          77.45          124.4
   0.08444              -38.18          20.19          71.94          47.16          9.694         -1.581          90.83          25.19         -176.5          77.44          124.4
    0.0965              -38.18          20.19          71.93          47.17          9.691         -1.579          90.77           25.2         -176.5          77.43          124.4
    0.1086              -38.19          20.19          71.92          47.17          9.688         -1.577           90.7          25.21         -176.4          77.42          124.4
    0.1206              -38.19          20.19          71.91          47.17          9.685         -1.575          90.63          25.22         -176.3          77.41          124.4
    0.1327              -38.19          20.19           71.9          47.18          9.682         -1.572          90.56          25.24         -176.2          77.39          124.4
    0.1448              -38.19          20.19          71.89          47.18          9.678          -1.57          90.48          25.26         -176.2          77.38          124.4
    0.1568              -38.19           20.2          71.87          47.19          9.674         -1.567          90.39          25.27         -176.1          77.37          124.4
    0.1689               -38.2           20.2          71.86          47.19           9.67         -1.563           90.3          25.29         -176.0          77.35          124.4
    0.1809               -38.2           20.2          71.84           47.2          9.665          -1.56           90.2          25.31         -175.9          77.34          124.4
     0.193               -38.2           20.2          71.82           47.2           9.66         -1.556          90.09          25.33         -175.7          77.32          124.4
    0.2051               -38.2           20.2          71.81          47.21          9.655         -1.552          89.97          25.36         -175.6           77.3          124.3
    0.2171              -38.21           20.2          71.78          47.22          9.649         -1.548          89.84          25.38         -175.5          77.28          124.3
    0.2292              -38.21           20.2          71.76          47.22          9.642         -1.543           89.7          25.41         -175.3          77.25          124.3
    0.2413              -38.22           20.2          71.74          47.23          9.635         -1.537          89.54          25.44         -175.2          77.23          124.3
    0.2533              -38.22           20.2          71.71          47.24          9.627         -1.531          89.37          25.48         -175.0           77.2          124.3
    0.2654              -38.22           20.2          71.68          47.25          9.618         -1.525          89.18          25.52         -174.8          77.17          124.3
    0.2774              -38.23          20.21          71.65          47.26          9.609         -1.518          88.97          25.56         -174.6          77.14          124.2
    0.2895              -38.24          20.21          71.61          47.27          9.598          -1.51          88.73          25.61         -174.3           77.1          124.2
    0.3016              -38.24          20.21          71.57          47.29          9.586         -1.501          88.47          25.66         -174.0          77.06          124.2
    0.3136              -38.25          20.21          71.52           47.3          9.572         -1.491          88.18          25.72         -173.7          77.01          124.1
